<?xml version="1.0" encoding="UTF-8"?>
<svg width="250pt" version="1.1" xmlns="http://www.w3.org/2000/svg" height="250pt" viewBox="0 0 250 250" xmlns:xlink="http://www.w3.org/1999/xlink">
 <defs/>
 <g id="Hintergrund">
  <path style="fill:#161413; fill-rule:evenodd;stroke:none;" id=" path3583" d="M116.348 0.0812244 C95.1167 0 74.1147 5.9659 58.2254 15.9859 C14.0011 43.8672 9.7823 90.4259 9.35656 97.7618 C6.03891 99.8956 1.05227 103.914 0.583434 112.779 C0 123.767 6.89106 129.003 9.97343 131.073 C10.2977 132.051 11.0779 134.603 10.5903 137.762 C9.81177 142.8 6.1344 152.23 4.97 164.384 C3.80497 176.559 8.59763 190.672 14.4286 200.971 C18.6602 208.445 20.1424 214.534 20.6657 218.651 C21.189 222.767 20.8028 224.385 20.8028 224.385 L16.8274 245 L30.5355 229.096 C30.5355 229.096 36.2187 222.553 41.7075 213.804 C47.1964 205.057 53.1162 194.268 51.9884 183.361 C51.4269 177.926 50.616 174.138 49.9321 171.619 C49.2488 169.101 48.4928 167.456 48.4928 167.456 L48.1502 166.909 L47.8075 166.432 C47.8075 166.432 38.5809 155.274 33.2771 141.926 C30.8399 135.803 28.3336 127.972 27.1771 117.626 C26.8923 115.073 26.8726 113.764 26.8344 112.643 C29.3905 108.917 48.0909 82.4124 77.3484 64.724 C112.436 43.5136 136.955 41.0375 172.482 41.0375 C177.981 41.0375 185.984 40.9008 185.984 40.9008 L198.993 47.4933 C191.369 28.8858 167.389 13.1058 153.771 7.24856 C141.938 2.34387 129.086 0.129959 116.348 0.0812244 Z" transform="translate(13.7491, 2.96323)"/>
  <path style="fill:#161413; fill-rule:evenodd;stroke:none;" id=" path3585" d="M9.8698 0 L9.8698 0.887385 L9.8698 13.8569 C7.27105 14.8608 5.09116 15.978 3.35848 17.1333 C3.23473 17.2159 2.99836 17.2551 2.87868 17.3381 L0 19.3177 L3.49554 19.0447 C5.41448 18.8832 7.62239 18.8744 9.8698 18.9764 L9.8698 87.7147 C7.79074 91.9066 7.05965 96.3258 7.05965 100.342 C7.05965 107.745 9.07543 113.89 12.6799 122.937 C12.6983 122.983 12.6615 123.027 12.6799 123.074 C12.7016 123.128 12.7267 123.156 12.7485 123.21 L14.5305 122.595 C11.9695 112.752 12.2422 101.934 19.1227 93.3802 C22.338 89.3833 30.5867 86.8085 39.959 84.916 C49.3312 83.0235 59.7939 81.6948 67.5122 79.523 C77.1755 76.7989 85.5222 73.6722 90.9527 68.1921 C96.3832 62.7121 98.671 54.8526 96.4361 43.2088 C94.0327 30.6691 87.4898 22.034 78.0673 16.6555 C68.6443 11.277 56.3893 9.07861 42.5634 9.07861 C32.794 9.07861 25.0828 9.95768 18.8485 11.263 L18.8485 0.887385 L18.8485 0 L17.889 0 L10.8293 0 L9.8698 0 L9.8698 0 Z M18.8485 20.2733 C24.2837 21.5953 29.5786 23.9551 33.6532 28.055 C38.0064 32.4354 41.0338 38.6449 41.1926 47.714 C41.3109 54.5618 39.9071 59.713 36.669 64.2333 C33.4306 68.7531 28.2571 72.6869 20.562 76.8615 C19.9436 77.1919 19.4131 77.594 18.8485 77.9532 L18.8485 20.2733 Z" transform="translate(93.8131, 63.8017)"/>
  <path style="fill:#161413; fill-rule:evenodd;stroke:none;" id=" path4155" d="M24.0105 29.5909 L14.8392 22.5617 L5.6958 29.631 L9.22466 18.2946 L0 11.3428 L11.3523 11.3658 L14.7944 0 L18.2817 11.3506 L29.6338 11.278 L20.4367 18.27 L24.0105 29.5909 Z" transform="translate(69.4202, 186.104)"/>
  <path style="fill:#161413; fill-rule:evenodd;stroke:none;" id=" path4157" d="M24.0105 29.5909 L14.8392 22.5617 L5.6958 29.631 L9.22466 18.2946 L0 11.3428 L11.3523 11.3658 L14.7944 0 L18.2817 11.3506 L29.6338 11.278 L20.4367 18.27 L24.0105 29.5909 Z" transform="translate(117.378, 199.164)"/>
  <path style="fill:#161413; fill-rule:evenodd;stroke:none;" id=" path4171" d="M24.0105 29.5909 L14.8392 22.5617 L5.6958 29.631 L9.22466 18.2946 L0 11.3428 L11.3523 11.3658 L14.7944 0 L18.2817 11.3506 L29.6338 11.278 L20.4367 18.27 L24.0105 29.5909 Z" transform="translate(200.21, 55.4347)"/>
  <path style="fill:#161413; fill-rule:evenodd;stroke:none;" id=" path4173" d="M24.0105 29.5909 L14.8392 22.5617 L5.6958 29.631 L9.22466 18.2946 L0 11.3428 L11.3523 11.3658 L14.7944 0 L18.2817 11.3506 L29.6338 11.278 L20.4367 18.27 L24.0105 29.5909 Z" transform="translate(213.005, 103.152)"/>
  <path style="fill:#161413; fill-rule:evenodd;stroke:none;" id=" path4175" d="M24.0105 29.5909 L14.8392 22.5617 L5.6958 29.631 L9.22466 18.2946 L0 11.3428 L11.3523 11.3658 L14.7944 0 L18.2817 11.3506 L29.6338 11.278 L20.4367 18.27 L24.0105 29.5909 Z" transform="translate(200.114, 151.35)"/>
  <path style="fill:#161413; fill-rule:evenodd;stroke:none;" id=" path4177" d="M24.0105 29.5909 L14.8392 22.5617 L5.6958 29.631 L9.22466 18.2946 L0 11.3428 L11.3523 11.3658 L14.7944 0 L18.2817 11.3506 L29.6338 11.278 L20.4367 18.27 L24.0105 29.5909 Z" transform="translate(165.095, 186.272)"/>
 </g>
</svg>
