<svg xmlns="http://www.w3.org/2000/svg"><g><path d="m9,98 c -12,8 -12,25 1,33 3,8 -3,15 -5,33 -2,23 14,38 16,54 1,9 -2,18 -4,26 17,-19 37,-42 35,-62C49,156 28,151 27,113 74,44 162,29 199,47 169,-26 16,-13 9,98z"/><path d="m10,0V14C6,16 3,17 0,19 3,19 7,19 10,19V88C4,100 10,112 14,123 -3,58 104,108 96,43 88,-2 23,10 19,11V0Zm9,20c10,2 22,9 22,27 1,16 -11,23 -22,30z" transform="translate(80,61)"/><path id="s" d="M24 30 L0 11 H30 L6 30 L15 0 Z" transform="translate(56, 182)"/><use href="#s" x="48" y="13"/><use href="#s" x="131" y="-131"/><use href="#s" x="143" y="-82"/><use href="#s" x="130" y="-34"/><use href="#s" x="95" y="1"/></g></svg>
